<svg width="934" height="345" version="1.1" viewBox="0 0 934 345" xmlns="http://www.w3.org/2000/svg" xmlns:xlink="http://www.w3.org/1999/xlink">
 <defs>
  <radialGradient id="a" cx="58.66" cy="361.2" r="52.34" gradientTransform="matrix(0 -.3783 2 -3.731e-6 -663.8 383.4)" gradientUnits="userSpaceOnUse">
   <stop stop-color="#4d4d5d" stop-opacity=".149" offset="0"/>
   <stop stop-color="#fff" stop-opacity="0" offset="1"/>
  </radialGradient>
 </defs>
 <g stroke-opacity=".9953">
  <path transform="matrix(1.873 0 0 1.873 151.1 -407.1)" d="m58.66 361.2c2.868-2.868-107.4-2.868-104.6 0 2.868 2.868 2.868-107.4 0-104.6-2.868 2.868 107.4 2.868 104.6 0-2.868-2.868-2.868 107.4 0 104.6z" fill="#fff" stop-color="#000000" stroke="#e6e6eb" stroke-width=".7"/>
  <g fill="#4d4d5d" stroke-width=".4945">
   <path d="m247.1 87.05h7.314v3.387h-7.314z" opacity=".15" stop-color="#000000"/>
   <path d="m71.58 87.05h7.314v3.387h-7.314z" opacity=".15" stop-color="#000000"/>
   <path d="m86.21 87.05h7.314v3.387h-7.314z" opacity=".15" stop-color="#000000"/>
   <path d="m100.8 87.05h7.314v3.387h-7.314z" opacity=".15" stop-color="#000000"/>
   <path d="m115.5 87.05h7.314v3.387h-7.314z" opacity=".15" stop-color="#000000"/>
   <path d="m130.1 87.05h7.314v3.387h-7.314z" opacity=".15" stop-color="#000000"/>
   <path d="m144.7 87.05h7.314v3.387h-7.314z" opacity=".15" stop-color="#000000"/>
   <path d="m159.3 87.05h7.314v3.387h-7.314z" opacity=".15" stop-color="#000000"/>
   <path d="m174 87.05h7.314v3.387h-7.314z" opacity=".15" stop-color="#000000"/>
   <path d="m188.6 87.05h7.314v3.387h-7.314z" opacity=".15" stop-color="#000000"/>
   <path d="m203.2 87.05h7.314v3.387h-7.314z" opacity=".15" stop-color="#000000"/>
   <path d="m217.9 87.05h7.314v3.387h-7.314z" opacity=".15" stop-color="#000000"/>
   <path d="m232.5 87.05h7.314v3.387h-7.314z" opacity=".15" stop-color="#000000"/>
  </g>
  <path transform="matrix(1.458 0 0 1.458 153.7 -278.8)" d="m58.66 361.2c2.868-2.868-107.4-2.868-104.6 0 2.868 2.868 2.868-107.4 0-104.6-2.868 2.868 107.4 2.868 104.6 0-2.868-2.868-2.868 107.4 0 104.6z" fill="#fff" stop-color="#000000" stroke="#e6e6eb" stroke-width=".7"/>
 </g>
 <g>
  <path transform="matrix(1.458 0 0 1.458 153.7 -278.8)" d="m58.66 361.2c2.868-2.868-107.4-2.868-104.6 0 2.868 2.868 2.868-107.4 0-104.6-2.868 2.868 107.4 2.868 104.6 0-2.868-2.868-2.868 107.4 0 104.6z" fill="url(#a)" stop-color="#000000" stroke-opacity=".9953" stroke-width=".7"/>
 </g>
 <g>
  <path d="m156.7 115c-6.385 0-17.44 0.3115-25.07 0.4672-1.635 0-3.348 0.0779-4.983 0.0779-7.475 0-14.87-0.3115-19.23-0.5451v3.192c10.04 0.4672 11.91 2.102 11.91 13.7v79.11c0 11.6-1.791 13.24-11.91 13.7v3.192c5.373-0.3115 15.11-0.4672 24.53-0.4672 7.164 0 18.3 0.4672 23.28 0.4672 40.1 0 63.46-22.97 63.46-57.7 0-35.58-20.01-55.21-61.98-55.21zm-0.1557 2.881c25.7 0 35.66 17.21 35.66 52.95 0 34.73-8.643 54.19-35.51 54.19-9.889 0-11.99-2.57-11.99-13.7v-79.73c0-10.98 2.102-13.7 11.84-13.7z" fill="#f50057" stroke-width="3.987"/>
  <g fill="#ccccd1" stroke-width="2.898">
   <path d="m381.6 133.6c-4.641 0-12.68 0.2264-18.22 0.3396-1.188 0-2.434 0.0566-3.622 0.0566-5.433 0-10.81-0.2264-13.98-0.3962v2.32c7.301 0.3396 8.659 1.528 8.659 9.96v57.5c0 8.432-1.302 9.621-8.659 9.96v2.32c3.905-0.2264 10.98-0.3396 17.83-0.3396 5.207 0 13.3 0.3396 16.92 0.3396 29.15 0 46.12-16.7 46.12-41.94 0-25.86-14.54-40.12-45.05-40.12zm-0.1132 2.094c18.68 0 25.92 12.51 25.92 38.48 0 25.24-6.282 39.39-25.81 39.39-7.187 0-8.715-1.868-8.715-9.96v-57.95c0-7.98 1.528-9.96 8.602-9.96z"/>
   <path d="m468.7 207.7c-7.357 0-15.11-6.282-15.11-22.41 0-1.868 0.0566-3.792 0.2264-5.49h32.43c0-18.17-8.263-25.75-21.79-25.75-16.47 0-28.35 10.7-28.35 32.2 0 21.17 11.09 31.01 26.71 31.01 12.85 0 20.43-9.338 23.2-18.05l-2.094-0.7923c-4.697 7.697-10.58 9.281-15.22 9.281zm-4.924-51.16c5.659 0 8.093 9.734 7.867 21.05h-18.17c0.9621-15 5.093-21.05 10.3-21.05z"/>
   <path d="m515.9 154c-10.53 0-19.92 5.659-19.92 15.96 0 9.338 6.961 14.6 14.54 20.54 6.678 5.207 11.71 8.998 11.71 15.79 0 5.942-4.131 8.263-8.15 8.263-9.734 0-14.21-8.772-15.62-21.34h-2.49c0 11.71-0.1132 18.17-0.4528 23.15h2.434c0.5659-2.49 1.528-4.131 2.83-4.131 0.1698 0 0.3396 0.0566 0.5094 0.1132 1.641 0.5093 3.282 1.358 5.376 2.434 2.603 1.415 6.225 2.434 10.87 2.434 11.94 0 21.96-6.621 21.96-17.2 0-9.168-6.112-14.15-13.87-19.86-7.131-5.32-14.26-9.168-14.26-16.13 0-4.754 3.396-7.47 7.867-7.47 9.904 0 13.7 9.395 14.88 17.94h2.434c0-10.3 0.1132-15.96 0.5094-20.37h-2.49c-0.3962 2.886-1.358 4.245-2.716 4.245-0.6225 0-1.302-0.283-2.094-0.7923-2.264-1.471-7.357-3.565-13.87-3.565z"/>
   <path d="m561.6 125.7c-6.508 0-10.58 3.396-10.58 8.942 0 5.603 4.075 8.998 10.58 8.998 6.395 0 10.53-3.396 10.53-8.998 0-5.546-4.131-8.942-10.53-8.942zm9.112 28.64c-4.867 1.132-10.47 1.641-16.92 1.641-2.32 0-4.754-0.1698-7.187-0.3962v2.434c5.603 0 7.414 3.282 7.414 10.24v36.56c0 6.452-2.037 8.319-7.414 8.319v2.434c3.056-0.1132 10.02-0.4528 16.02-0.4528 6.056 0 12.56 0.3396 15.51 0.4528v-2.434c-5.433 0-7.414-1.868-7.414-8.319z"/>
   <path d="m613.2 154c-16.41 0-28.64 10.98-28.64 31.92 0 21.73 11.88 31.3 27 31.3 13.24 0 20.37-9.621 23.03-18.28l-2.037-0.7357c-4.697 7.753-10.87 9.451-15.17 9.451-7.64 0-15.34-5.376-15.34-23.37 0-15.73 5.037-27.45 14.66-27.45 3.056 0 5.773 1.188 6.961 2.773-4.131 1.132-7.64 4.641-7.64 9.508 0 5.207 3.452 8.602 8.942 8.602 5.32 0 9.168-3.848 9.168-9.338 0-4.584-2.49-8.432-6.395-10.81-3.339-2.094-8.546-3.565-14.54-3.565z"/>
   <path d="m670.7 154c-16.41 0-28.64 10.98-28.64 31.92 0 21.73 11.88 31.3 27 31.3 13.24 0 20.37-9.621 23.03-18.28l-2.037-0.7357c-4.697 7.753-10.87 9.451-15.17 9.451-7.64 0-15.34-5.376-15.34-23.37 0-15.73 5.037-27.45 14.66-27.45 3.056 0 5.773 1.188 6.961 2.773-4.131 1.132-7.64 4.641-7.64 9.508 0 5.207 3.452 8.602 8.942 8.602 5.32 0 9.168-3.848 9.168-9.338 0-4.584-2.49-8.432-6.395-10.81-3.339-2.094-8.546-3.565-14.54-3.565z"/>
   <path d="m725.7 154c-7.81 0-13.47 1.641-17.6 3.962-3.792 2.207-6.508 5.433-6.508 9.678 0 5.093 3.169 8.942 8.206 8.942 5.716 0 9.451-3.509 9.451-8.319 0-4.697-2.716-7.697-6.848-9.112 2.094-2.037 5.49-2.83 8.263-2.83 6.848 0 9.451 4.301 9.451 10.36v9.055c0 4.98-6.678 7.187-15.22 10.41-10.75 3.962-16.3 8.659-16.3 17.03 0 8.432 5.999 13.19 14.66 13.19 6.508 0 13.13-2.886 17.09-9.395 0.0566 4.98 2.66 9.395 11.15 9.395 5.886 0 9.734-1.415 13.24-4.245l-1.188-1.981c-1.302 1.019-2.603 1.981-4.245 1.981-1.868 0-2.49-1.415-2.49-5.15v-31.52c0-8.093-0.7357-12.73-4.131-16.24-3.735-3.848-9.508-5.207-16.98-5.207zm4.414 50.26c-2.434 3.452-4.98 4.697-7.81 4.697-4.131 0-7.244-2.603-7.244-8.998 0-6.961 3.792-10.75 7.867-13.75 3.905-2.434 6.112-3.962 7.187-5.716z"/>
   <path d="m801.1 154c-8.15 0-15.05 2.943-18.9 10.81v-10.47c-4.867 1.132-10.47 1.641-16.92 1.641-2.32 0-4.754-0.1698-7.187-0.3962v2.434c5.603 0 7.414 3.282 7.414 10.24v36.56c0 6.452-2.037 8.319-7.414 8.319v2.434c3.056-0.1132 10.02-0.4528 15.96-0.4528 5.659 0 11.66 0.3396 14.37 0.4528v-2.434c-4.584 0-6.225-1.868-6.225-8.319v-32.32c0-7.64 4.98-13.41 11.49-13.41 5.773 0 7.131 3.905 7.131 9.678v36.05c0 6.452-1.641 8.319-6.225 8.319v2.434c2.83-0.1132 9.112-0.4528 15.05-0.4528 5.659 0 12.34 0.3396 15.28 0.4528v-2.434c-5.376 0-7.414-1.868-7.414-8.319v-31.24c0-7.867-1.075-12.11-3.622-15.05-2.377-2.716-6.169-4.528-12.79-4.528z"/>
   <path d="m852.7 155.7v-19.07c-4.81 2.603-10.19 3.679-16.7 3.735v15.34h-9.734v2.32h9.734v39.11c0 8.093 0.8489 12.79 4.188 16.19 2.603 2.603 6.395 3.905 11.6 3.905 8.546 0 13.3-4.98 15.85-11.88l-1.924-1.075c-2.264 5.15-5.093 6.961-7.923 6.961-3.396 0-5.093-1.698-5.093-6.452v-46.75h13.7v-2.32z"/>
  </g>
  <g fill="#4d4d5d" stroke-width=".1536">
   <path d="m247.9 122.8-2.229-0.8219v1.647zm0.5969-0.342v0.6869l-4.479 1.707v-0.6299l1.149-0.408v-2.019l-1.149-0.408v-0.6389z" opacity=".3"/>
   <path d="m246.9 129.7h1.818v0.5519h-4.667v-0.5519h0.504q-0.3-0.174-0.447-0.441-0.144-0.264-0.144-0.6359 0-0.6089 0.486-0.9929 0.4859-0.381 1.278-0.381 0.7919 0 1.278 0.381 0.486 0.384 0.486 0.9929 0 0.372-0.147 0.6359-0.144 0.267-0.444 0.441zm-1.173-1.881q-0.6089 0-0.9569 0.249-0.345 0.252-0.345 0.6899t0.345 0.6899q0.348 0.252 0.9569 0.252 0.6089 0 0.9539-0.252 0.348-0.252 0.348-0.6899t-0.348-0.6899q-0.345-0.249-0.9539-0.249z" opacity=".3"/>
   <path d="m245.9 134.2h-0.27v-2.538q-0.5699 0.036-0.8699 0.342-0.297 0.309-0.297 0.8579 0 0.318 0.078 0.6149 0.078 0.3 0.234 0.5939h-0.5219q-0.126-0.297-0.192-0.6089-0.066-0.312-0.066-0.6329 0-0.8039 0.468-1.275 0.468-0.468 1.266-0.468 0.8249 0 1.308 0.444 0.486 0.447 0.486 1.203 0 0.6779-0.438 1.071-0.435 0.396-1.185 0.396zm0.162-0.5519q0.453-6e-3 0.7229-0.255 0.27-0.246 0.27-0.6539 0-0.462-0.261-0.7409-0.261-0.276-0.7349-0.318z" opacity=".3"/>
   <path d="m246.1 137.9h-2.028v-0.5519h2.01q0.477 0 0.7139-0.186 0.237-0.186 0.237-0.5579 0-0.447-0.285-0.7049-0.285-0.258-0.7769-0.258h-1.899v-0.5549h4.667v0.5549h-1.83q0.303 0.198 0.453 0.465 0.15 0.27 0.15 0.6209 0 0.5789-0.36 0.8759-0.357 0.297-1.053 0.297z" opacity=".3"/>
   <path d="m243.8 140.4q-0.5999-0.234-0.7829-0.456-0.183-0.222-0.183-0.5939v-0.441h0.462v0.324q0 0.228 0.108 0.354 0.108 0.126 0.5099 0.279l0.252 0.099 3.306-1.359v0.5849l-2.628 1.05 2.628 1.05v0.5849z" opacity=".3"/>
   <path d="m246.9 144.9h1.818v0.5519h-4.667v-0.5519h0.504q-0.3-0.174-0.447-0.441-0.144-0.264-0.144-0.6359 0-0.6089 0.486-0.9929 0.4859-0.381 1.278-0.381 0.7919 0 1.278 0.381 0.486 0.384 0.486 0.9929 0 0.372-0.147 0.6359-0.144 0.267-0.444 0.441zm-1.173-1.881q-0.6089 0-0.9569 0.249-0.345 0.252-0.345 0.6899t0.345 0.6899q0.348 0.252 0.9569 0.252 0.6089 0 0.9539-0.252 0.348-0.252 0.348-0.6899t-0.348-0.6899q-0.345-0.249-0.9539-0.249z" opacity=".3"/>
   <path d="m246.9 148.5q0.054-0.093 0.078-0.204 0.027-0.108 0.027-0.24 0-0.468-0.306-0.7199-0.303-0.249-0.8729-0.249h-1.77v-0.5549h3.36v0.5549h-0.5219q0.306 0.174 0.453 0.453 0.15 0.279 0.15 0.6779 0 0.057-9e-3 0.126-6e-3 0.069-0.021 0.153z" opacity=".3"/>
   <path d="m245.8 150.6q0-0.6689-0.153-0.9269-0.153-0.258-0.5219-0.258-0.294 0-0.468 0.192-0.171 0.195-0.171 0.5279 0 0.459 0.324 0.7349 0.327 0.279 0.8669 0.279h0.123zm0.228 1.101h-1.917v-0.5519h0.5099q-0.306-0.189-0.453-0.471-0.144-0.282-0.144-0.6899 0-0.5159 0.288-0.8219 0.291-0.303 0.7769-0.303 0.5669 0 0.8549 0.378 0.288 0.381 0.288 1.134v0.7739h0.054q0.381 0 0.5879-0.252 0.21-0.249 0.21-0.7019 0-0.288-0.069-0.5609t-0.207-0.5249h0.5099q0.117 0.303 0.174 0.5879 0.06 0.285 0.06 0.5549 0 0.7289-0.378 1.089t-1.146 0.36z" opacity=".3"/>
   <path d="m248.4 153.4h-0.9539v1.137h-0.429v-1.137h-1.824q-0.411 0-0.5279 0.111-0.117 0.114-0.117 0.459v0.5669h-0.462v-0.5669q0-0.6389 0.237-0.8819 0.24-0.243 0.8699-0.243h1.824v-0.405h0.429v0.405h0.9539z" opacity=".3"/>
   <path d="m245.9 158.1h-0.27v-2.538q-0.5699 0.036-0.8699 0.342-0.297 0.309-0.297 0.8579 0 0.318 0.078 0.6149 0.078 0.3 0.234 0.5939h-0.5219q-0.126-0.297-0.192-0.6089-0.066-0.312-0.066-0.6329 0-0.8039 0.468-1.275 0.468-0.468 1.266-0.468 0.8249 0 1.308 0.444 0.486 0.447 0.486 1.203 0 0.6779-0.438 1.071-0.435 0.396-1.185 0.396zm0.162-0.5519q0.453-6e-3 0.7229-0.255 0.27-0.246 0.27-0.6539 0-0.462-0.261-0.7409-0.261-0.276-0.7349-0.318z" opacity=".3"/>
   <path d="m246.9 161.3h1.818v0.5519h-4.667v-0.5519h0.504q-0.3-0.174-0.447-0.441-0.144-0.264-0.144-0.6359 0-0.6089 0.486-0.9929 0.4859-0.381 1.278-0.381 0.7919 0 1.278 0.381 0.486 0.384 0.486 0.9929 0 0.372-0.147 0.6359-0.144 0.267-0.444 0.441zm-1.173-1.881q-0.6089 0-0.9569 0.249-0.345 0.252-0.345 0.6899t0.345 0.6899q0.348 0.252 0.9569 0.252 0.6089 0 0.9539-0.252 0.348-0.252 0.348-0.6899t-0.348-0.6899q-0.345-0.249-0.9539-0.249z" opacity=".3"/>
   <path d="m245.8 166.4q0-0.6689-0.153-0.9269-0.153-0.258-0.5219-0.258-0.294 0-0.468 0.192-0.171 0.195-0.171 0.5279 0 0.459 0.324 0.7349 0.327 0.279 0.8669 0.279h0.123zm0.228 1.101h-1.917v-0.5519h0.5099q-0.306-0.189-0.453-0.471-0.144-0.282-0.144-0.6899 0-0.516 0.288-0.8219 0.291-0.303 0.7769-0.303 0.5669 0 0.8549 0.378 0.288 0.381 0.288 1.134v0.7739h0.054q0.381 0 0.5879-0.252 0.21-0.249 0.21-0.7019 0-0.288-0.069-0.5609-0.069-0.273-0.207-0.525h0.5099q0.117 0.303 0.174 0.5879 0.06 0.285 0.06 0.5549 0 0.7289-0.378 1.089t-1.146 0.36z" opacity=".3"/>
   <path d="m245.4 168.6h2.034v0.5519h-2.013q-0.4769 0-0.7169 0.186-0.237 0.186-0.237 0.5579 0 0.447 0.285 0.7049 0.285 0.261 0.7769 0.261h1.905v0.5519h-3.36v-0.5519h0.5159q-0.306-0.201-0.456-0.468-0.147-0.264-0.147-0.6149 0-0.5789 0.36-0.8789t1.053-0.3z" opacity=".3"/>
   <path d="m248.4 173.1h-0.9539v1.137h-0.429v-1.137h-1.824q-0.411 0-0.5279 0.111-0.117 0.114-0.117 0.459v0.5669h-0.462v-0.5669q0-0.6389 0.237-0.8819 0.24-0.243 0.8699-0.243h1.824v-0.405h0.429v0.405h0.9539z" opacity=".3"/>
   <path d="m247 176.3q0-0.444-0.348-0.7019-0.345-0.258-0.9479-0.258-0.6029 0-0.9509 0.255-0.345 0.258-0.345 0.7049 0 0.441 0.348 0.6989t0.9479 0.258q0.5969 0 0.9449-0.258 0.351-0.258 0.351-0.6989zm0.468 0q0 0.7199-0.468 1.131-0.468 0.411-1.296 0.411-0.8249 0-1.296-0.411-0.468-0.411-0.468-1.131 0-0.7229 0.468-1.134 0.471-0.408 1.296-0.408 0.8279 0 1.296 0.408 0.468 0.411 0.468 1.134z" opacity=".3"/>
   <path d="m246.8 181.3q0.372 0.207 0.5489 0.495 0.177 0.288 0.177 0.6779 0 0.5249-0.369 0.8099-0.366 0.285-1.044 0.285h-2.028v-0.5549h2.01q0.483 0 0.7169-0.171 0.234-0.171 0.234-0.522 0-0.429-0.285-0.6779-0.285-0.249-0.7769-0.249h-1.899v-0.5549h2.01q0.486 0 0.7169-0.171 0.234-0.171 0.234-0.5279 0-0.423-0.288-0.6719-0.285-0.249-0.7739-0.249h-1.899v-0.5549h3.36v0.5549h-0.5219q0.309 0.189 0.456 0.453 0.147 0.264 0.147 0.6269 0 0.366-0.186 0.6209-0.186 0.258-0.54 0.381z" opacity=".3"/>
   <path d="m245.8 186.2q0-0.6689-0.153-0.9269-0.153-0.258-0.5219-0.258-0.294 0-0.468 0.192-0.171 0.195-0.171 0.5279 0 0.459 0.324 0.7349 0.327 0.279 0.8669 0.279h0.123zm0.228 1.101h-1.917v-0.5519h0.5099q-0.306-0.189-0.453-0.471-0.144-0.282-0.144-0.6899 0-0.516 0.288-0.8219 0.291-0.303 0.7769-0.303 0.5669 0 0.8549 0.378 0.288 0.381 0.288 1.134v0.7739h0.054q0.381 0 0.5879-0.252 0.21-0.249 0.21-0.7019 0-0.288-0.069-0.5609t-0.207-0.525h0.5099q0.117 0.303 0.174 0.5879 0.06 0.285 0.06 0.5549 0 0.7289-0.378 1.089t-1.146 0.36z" opacity=".3"/>
   <path d="m248.4 189h-0.9539v1.137h-0.429v-1.137h-1.824q-0.411 0-0.5279 0.111-0.117 0.114-0.117 0.459v0.5669h-0.462v-0.5669q0-0.6389 0.237-0.8819 0.24-0.243 0.8699-0.243h1.824v-0.405h0.429v0.405h0.9539z" opacity=".3"/>
   <path d="m247.4 190.9v0.5519h-3.36v-0.5519zm1.308 0v0.5519h-0.6989v-0.5519z" opacity=".3"/>
   <path d="m247 193.9q0-0.444-0.348-0.7019-0.345-0.258-0.9479-0.258-0.6029 0-0.9509 0.255-0.345 0.258-0.345 0.7049 0 0.441 0.348 0.6989t0.9479 0.258q0.5969 0 0.9449-0.258 0.351-0.258 0.351-0.6989zm0.468 0q0 0.7199-0.468 1.131-0.468 0.411-1.296 0.411-0.8249 0-1.296-0.411-0.468-0.411-0.468-1.131 0-0.7229 0.468-1.134 0.471-0.408 1.296-0.408 0.8279 0 1.296 0.408 0.468 0.411 0.468 1.134z" opacity=".3"/>
   <path d="m246.1 199.1h-2.028v-0.5519h2.01q0.477 0 0.7139-0.186 0.237-0.186 0.237-0.5579 0-0.447-0.285-0.7049t-0.7769-0.258h-1.899v-0.5549h3.36v0.5549h-0.5219q0.303 0.198 0.453 0.465 0.15 0.27 0.15 0.6209 0 0.5789-0.36 0.8759-0.357 0.297-1.053 0.297z" opacity=".3"/>
   <path d="m245.9 205.1h-0.27v-2.538q-0.5699 0.036-0.8699 0.342-0.297 0.309-0.297 0.8579 0 0.318 0.078 0.6149 0.078 0.3 0.234 0.5939h-0.5219q-0.126-0.297-0.192-0.6089t-0.066-0.6329q0-0.8039 0.468-1.275 0.468-0.468 1.266-0.468 0.8249 0 1.308 0.444 0.486 0.447 0.486 1.203 0 0.6779-0.438 1.071-0.435 0.396-1.185 0.396zm0.162-0.5519q0.453-6e-3 0.7229-0.255 0.27-0.246 0.27-0.6539 0-0.462-0.261-0.7409-0.261-0.276-0.7349-0.318z" opacity=".3"/>
   <path d="m246.1 208.8h-2.028v-0.5519h2.01q0.477 0 0.7139-0.186 0.237-0.186 0.237-0.5579 0-0.447-0.285-0.7049-0.285-0.258-0.7769-0.258h-1.899v-0.5549h3.36v0.5549h-0.5219q0.303 0.198 0.453 0.465 0.15 0.27 0.15 0.6209 0 0.5789-0.36 0.8759-0.357 0.297-1.053 0.297z" opacity=".3"/>
   <path d="m245.8 212.1q0.5999 0 0.9299-0.249 0.33-0.246 0.33-0.6929 0-0.444-0.33-0.6929-0.33-0.246-0.9299-0.246-0.5969 0-0.9269 0.246-0.33 0.249-0.33 0.6929 0 0.447 0.33 0.6929 0.33 0.249 0.9269 0.249zm-1.302 0.5519q-0.8579 0-1.275-0.381-0.42-0.381-0.42-1.167 0-0.291 0.045-0.5489 0.042-0.258 0.132-0.501h0.5369q-0.132 0.243-0.195 0.48t-0.063 0.483q0 0.5429 0.285 0.8129 0.282 0.27 0.8549 0.27h0.273q-0.297-0.171-0.444-0.438-0.147-0.267-0.147-0.6389 0-0.6179 0.471-0.9959 0.471-0.378 1.248-0.378 0.7799 0 1.251 0.378 0.471 0.378 0.471 0.9959 0 0.372-0.147 0.6389-0.147 0.267-0.444 0.438h0.5099v0.5519z" opacity=".3"/>
   <path d="m247.4 213.8v0.5519h-3.36v-0.5519zm1.308 0v0.5519h-0.6989v-0.5519z" opacity=".3"/>
   <path d="m246.1 218.3h-2.028v-0.5519h2.01q0.477 0 0.7139-0.186 0.237-0.186 0.237-0.5579 0-0.447-0.285-0.7049-0.285-0.258-0.7769-0.258h-1.899v-0.5549h3.36v0.5549h-0.5219q0.303 0.198 0.453 0.465 0.15 0.27 0.15 0.6209 0 0.5789-0.36 0.8759-0.357 0.297-1.053 0.297z" opacity=".3"/>
   <path d="m245.9 222.2h-0.27v-2.538q-0.5699 0.036-0.8699 0.342-0.297 0.309-0.297 0.8579 0 0.318 0.078 0.6149 0.078 0.3 0.234 0.5939h-0.5219q-0.126-0.297-0.192-0.6089-0.066-0.312-0.066-0.6329 0-0.8039 0.468-1.275 0.468-0.4679 1.266-0.4679 0.8249 0 1.308 0.444 0.486 0.447 0.486 1.203 0 0.6779-0.438 1.071-0.435 0.396-1.185 0.396zm0.162-0.5519q0.453-6e-3 0.7229-0.255 0.27-0.246 0.27-0.6539 0-0.462-0.261-0.7409-0.261-0.276-0.7349-0.318z" opacity=".3"/>
   <path d="m78.06 220.2 2.229 0.8219v-1.647zm-0.5969 0.342v-0.6869l4.479-1.707v0.6299l-1.149 0.408v2.019l1.149 0.408v0.6389z" opacity=".3"/>
   <path d="m79.09 213.3h-1.818v-0.5519h4.667v0.5519h-0.5039q0.3 0.174 0.447 0.441 0.144 0.264 0.144 0.6359 0 0.6089-0.4859 0.9929-0.4859 0.381-1.278 0.381-0.7919 0-1.278-0.381-0.4859-0.384-0.4859-0.9929 0-0.372 0.147-0.6359 0.144-0.267 0.444-0.441zm1.173 1.881q0.6089 0 0.9569-0.249 0.345-0.252 0.345-0.6899t-0.345-0.6899q-0.348-0.252-0.9569-0.252-0.6089 0-0.9539 0.252-0.348 0.252-0.348 0.6899t0.348 0.6899q0.345 0.249 0.9539 0.249z" opacity=".3"/>
   <path d="m80.13 208.8h0.27v2.538q0.5699-0.036 0.8699-0.342 0.297-0.309 0.297-0.8579 0-0.318-0.07799-0.6149-0.07799-0.3-0.234-0.5939h0.5219q0.126 0.297 0.192 0.6089 0.06599 0.312 0.06599 0.6329 0 0.8039-0.4679 1.275-0.4679 0.468-1.266 0.468-0.8249 0-1.308-0.444-0.4859-0.447-0.4859-1.203 0-0.6779 0.438-1.071 0.435-0.396 1.185-0.396zm-0.162 0.5519q-0.453 6e-3 -0.7229 0.255-0.27 0.246-0.27 0.6539 0 0.462 0.261 0.7409 0.261 0.276 0.7349 0.318z" opacity=".3"/>
   <path d="m79.92 205.1h2.028v0.5519h-2.01q-0.4769 0-0.7139 0.186-0.237 0.186-0.237 0.5579 0 0.447 0.285 0.7049 0.285 0.258 0.7769 0.258h1.899v0.5549h-4.667v-0.5549h1.83q-0.303-0.198-0.453-0.465-0.15-0.27-0.15-0.6209 0-0.5789 0.36-0.8759 0.357-0.297 1.053-0.297z" opacity=".3"/>
   <path d="m82.26 202.6q0.5999 0.234 0.7829 0.456 0.183 0.222 0.183 0.5939v0.441h-0.4619v-0.324q0-0.228-0.108-0.354-0.108-0.126-0.5099-0.279l-0.252-0.099-3.306 1.359v-0.5849l2.628-1.05-2.628-1.05v-0.5849z" opacity=".3"/>
   <path d="m79.09 198.1h-1.818v-0.5519h4.667v0.5519h-0.5039q0.3 0.174 0.447 0.441 0.144 0.264 0.144 0.6359 0 0.6089-0.4859 0.9929-0.4859 0.381-1.278 0.381-0.7919 0-1.278-0.381-0.4859-0.384-0.4859-0.9929 0-0.372 0.147-0.6359 0.144-0.267 0.444-0.441zm1.173 1.881q0.6089 0 0.9569-0.249 0.345-0.252 0.345-0.6899t-0.345-0.6899q-0.348-0.252-0.9569-0.252-0.6089 0-0.9539 0.252-0.348 0.252-0.348 0.6899t0.348 0.6899q0.345 0.249 0.9539 0.249z" opacity=".3"/>
   <path d="m79.1 194.5q-0.05399 0.093-0.07799 0.204-0.027 0.108-0.027 0.24 0 0.468 0.306 0.7199 0.303 0.249 0.8729 0.249h1.77v0.5549h-3.36v-0.5549h0.5219q-0.306-0.174-0.453-0.453-0.15-0.279-0.15-0.6779 0-0.057 9e-3 -0.126 6e-3 -0.069 0.021-0.153z" opacity=".3"/>
   <path d="m80.26 192.4q0 0.6689 0.153 0.9269t0.5219 0.258q0.294 0 0.4679-0.192 0.171-0.195 0.171-0.5279 0-0.459-0.324-0.7349-0.327-0.279-0.8669-0.279h-0.123zm-0.228-1.101h1.917v0.5519h-0.5099q0.306 0.189 0.453 0.471 0.144 0.282 0.144 0.6899 0 0.516-0.288 0.8219-0.291 0.303-0.7769 0.303-0.5669 0-0.8549-0.378-0.288-0.381-0.288-1.134v-0.7739h-0.05399q-0.381 0-0.5879 0.252-0.21 0.249-0.21 0.7019 0 0.288 0.06899 0.5609t0.207 0.525h-0.5099q-0.117-0.303-0.174-0.5879-0.05999-0.285-0.05999-0.5549 0-0.7289 0.378-1.089 0.378-0.36 1.146-0.36z" opacity=".3"/>
   <path d="m77.63 189.6h0.9539v-1.137h0.429v1.137h1.824q0.411 0 0.5279-0.111 0.117-0.114 0.117-0.459v-0.5669h0.462v0.5669q0 0.6389-0.237 0.8819-0.24 0.243-0.8699 0.243h-1.824v0.405h-0.429v-0.405h-0.9539z" opacity=".3"/>
   <path d="m80.13 184.9h0.27v2.538q0.5699-0.036 0.8699-0.342 0.297-0.309 0.297-0.8579 0-0.318-0.07799-0.6149-0.07799-0.3-0.234-0.5939h0.5219q0.126 0.297 0.192 0.6089 0.06599 0.312 0.06599 0.6329 0 0.8039-0.4679 1.275-0.4679 0.468-1.266 0.468-0.8249 0-1.308-0.444-0.4859-0.447-0.4859-1.203 0-0.6779 0.438-1.071 0.435-0.396 1.185-0.396zm-0.162 0.5519q-0.453 6e-3 -0.7229 0.255-0.27 0.246-0.27 0.6539 0 0.462 0.261 0.7409 0.261 0.276 0.7349 0.318z" opacity=".3"/>
   <path d="m79.09 181.7h-1.818v-0.5519h4.667v0.5519h-0.5039q0.3 0.174 0.447 0.441 0.144 0.264 0.144 0.6359 0 0.6089-0.4859 0.9929-0.4859 0.381-1.278 0.381-0.7919 0-1.278-0.381-0.4859-0.384-0.4859-0.9929 0-0.372 0.147-0.6359 0.144-0.267 0.444-0.441zm1.173 1.881q0.6089 0 0.9569-0.249 0.345-0.252 0.345-0.6899 0-0.438-0.345-0.6899-0.348-0.252-0.9569-0.252-0.6089 0-0.9539 0.252-0.348 0.252-0.348 0.6899 0 0.438 0.348 0.6899 0.345 0.249 0.9539 0.249z" opacity=".3"/>
   <path d="m80.26 176.6q0 0.6689 0.153 0.9269t0.5219 0.258q0.294 0 0.4679-0.192 0.171-0.195 0.171-0.5279 0-0.459-0.324-0.7349-0.327-0.279-0.8669-0.279h-0.123zm-0.228-1.101h1.917v0.5519h-0.5099q0.306 0.189 0.453 0.471 0.144 0.282 0.144 0.6899 0 0.5159-0.288 0.8219-0.291 0.303-0.7769 0.303-0.5669 0-0.8549-0.378-0.288-0.381-0.288-1.134v-0.7739h-0.05399q-0.381 0-0.5879 0.252-0.21 0.249-0.21 0.7019 0 0.288 0.06899 0.5609t0.207 0.5249h-0.5099q-0.117-0.303-0.174-0.5879-0.05999-0.285-0.05999-0.5549 0-0.7289 0.378-1.089 0.378-0.36 1.146-0.36z" opacity=".3"/>
   <path d="m80.62 174.4h-2.034v-0.5519h2.013q0.4769 0 0.7169-0.186 0.237-0.186 0.237-0.5579 0-0.447-0.285-0.7049-0.285-0.261-0.7769-0.261h-1.905v-0.5519h3.36v0.5519h-0.5159q0.306 0.201 0.456 0.4679 0.147 0.264 0.147 0.6149 0 0.5789-0.36 0.8789-0.36 0.3-1.053 0.3z" opacity=".3"/>
   <path d="m77.63 169.9h0.9539v-1.137h0.429v1.137h1.824q0.411 0 0.5279-0.111 0.117-0.114 0.117-0.459v-0.5669h0.462v0.5669q0 0.6389-0.237 0.8819-0.24 0.243-0.8699 0.243h-1.824v0.405h-0.429v-0.405h-0.9539z" opacity=".3"/>
   <path d="m78.97 166.7q0 0.444 0.348 0.7019 0.345 0.258 0.9479 0.258 0.6029 0 0.9509-0.255 0.345-0.258 0.345-0.7049 0-0.441-0.348-0.6989t-0.9479-0.258q-0.5969 0-0.9449 0.258-0.351 0.258-0.351 0.6989zm-0.4679 0q0-0.7199 0.4679-1.131 0.4679-0.411 1.296-0.411 0.8249 0 1.296 0.411 0.4679 0.411 0.4679 1.131 0 0.7229-0.4679 1.134-0.4709 0.408-1.296 0.408-0.8279 0-1.296-0.408-0.4679-0.411-0.4679-1.134z" opacity=".3"/>
   <path d="m79.23 161.7q-0.372-0.207-0.5489-0.495-0.177-0.288-0.177-0.6779 0-0.525 0.369-0.8099 0.366-0.285 1.044-0.285h2.028v0.5549h-2.01q-0.4829 0-0.7169 0.171-0.234 0.171-0.234 0.5219 0 0.429 0.285 0.6779 0.285 0.249 0.7769 0.249h1.899v0.5549h-2.01q-0.4859 0-0.7169 0.171-0.234 0.171-0.234 0.5279 0 0.423 0.288 0.6719 0.285 0.249 0.7739 0.249h1.899v0.5549h-3.36v-0.5549h0.5219q-0.309-0.189-0.456-0.453t-0.147-0.6269q0-0.366 0.186-0.6209 0.186-0.258 0.5399-0.381z" opacity=".3"/>
   <path d="m80.26 156.8q0 0.6689 0.153 0.9269t0.5219 0.258q0.294 0 0.4679-0.192 0.171-0.195 0.171-0.5279 0-0.459-0.324-0.7349-0.327-0.279-0.8669-0.279h-0.123zm-0.228-1.101h1.917v0.5519h-0.5099q0.306 0.189 0.453 0.471 0.144 0.282 0.144 0.6899 0 0.516-0.288 0.8219-0.291 0.303-0.7769 0.303-0.5669 0-0.8549-0.378-0.288-0.381-0.288-1.134v-0.7739h-0.05399q-0.381 0-0.5879 0.252-0.21 0.249-0.21 0.7019 0 0.288 0.06899 0.5609t0.207 0.5249h-0.5099q-0.117-0.303-0.174-0.5879-0.05999-0.285-0.05999-0.5549 0-0.7289 0.378-1.089 0.378-0.36 1.146-0.36z" opacity=".3"/>
   <path d="m77.63 154h0.9539v-1.137h0.429v1.137h1.824q0.411 0 0.5279-0.111 0.117-0.114 0.117-0.459v-0.5669h0.462v0.5669q0 0.6389-0.237 0.8819-0.24 0.243-0.8699 0.243h-1.824v0.405h-0.429v-0.405h-0.9539z" opacity=".3"/>
   <path d="m78.58 152.1v-0.5519h3.36v0.5519zm-1.308 0v-0.5519h0.6989v0.5519z" opacity=".3"/>
   <path d="m78.97 149.1q0 0.444 0.348 0.7019 0.345 0.258 0.9479 0.258 0.6029 0 0.9509-0.255 0.345-0.258 0.345-0.7049 0-0.441-0.348-0.6989-0.348-0.258-0.9479-0.258-0.5969 0-0.9449 0.258-0.351 0.258-0.351 0.6989zm-0.4679 0q0-0.7199 0.4679-1.131 0.4679-0.411 1.296-0.411 0.8249 0 1.296 0.411 0.4679 0.411 0.4679 1.131 0 0.7229-0.4679 1.134-0.4709 0.408-1.296 0.408-0.8279 0-1.296-0.408-0.4679-0.411-0.4679-1.134z" opacity=".3"/>
   <path d="m79.92 143.9h2.028v0.5519h-2.01q-0.4769 0-0.7139 0.186-0.237 0.186-0.237 0.5579 0 0.447 0.285 0.7049t0.7769 0.258h1.899v0.5549h-3.36v-0.5549h0.5219q-0.303-0.198-0.453-0.465-0.15-0.27-0.15-0.6209 0-0.5789 0.36-0.8759 0.357-0.297 1.053-0.297z" opacity=".3"/>
   <path d="m80.13 137.9h0.27v2.538q0.5699-0.036 0.8699-0.342 0.297-0.309 0.297-0.8579 0-0.318-0.07799-0.6149-0.07799-0.3-0.234-0.5939h0.5219q0.126 0.297 0.192 0.6089 0.06599 0.312 0.06599 0.6329 0 0.8039-0.4679 1.275-0.4679 0.468-1.266 0.468-0.8249 0-1.308-0.444-0.4859-0.447-0.4859-1.203 0-0.6779 0.438-1.071 0.435-0.396 1.185-0.396zm-0.162 0.5519q-0.453 6e-3 -0.7229 0.255-0.27 0.246-0.27 0.6539 0 0.462 0.261 0.7409 0.261 0.276 0.7349 0.318z" opacity=".3"/>
   <path d="m79.92 134.2h2.028v0.5519h-2.01q-0.4769 0-0.7139 0.186-0.237 0.186-0.237 0.5579 0 0.447 0.285 0.7049t0.7769 0.258h1.899v0.5549h-3.36v-0.5549h0.5219q-0.303-0.198-0.453-0.465-0.15-0.27-0.15-0.6209 0-0.5789 0.36-0.8759 0.357-0.297 1.053-0.297z" opacity=".3"/>
   <path d="m80.23 130.9q-0.5999 0-0.9299 0.249-0.33 0.246-0.33 0.6929 0 0.444 0.33 0.6929 0.33 0.246 0.9299 0.246 0.5969 0 0.9269-0.246 0.33-0.249 0.33-0.6929 0-0.447-0.33-0.6929-0.33-0.249-0.9269-0.249zm1.302-0.5519q0.8579 0 1.275 0.381 0.42 0.381 0.42 1.167 0 0.291-0.045 0.5489-0.042 0.258-0.132 0.501h-0.5369q0.132-0.243 0.195-0.48 0.06299-0.237 0.06299-0.4829 0-0.543-0.285-0.8129-0.282-0.27-0.8549-0.27h-0.273q0.297 0.171 0.444 0.438 0.147 0.267 0.147 0.6389 0 0.6179-0.4709 0.9959t-1.248 0.378q-0.7799 0-1.251-0.378-0.4709-0.378-0.4709-0.9959 0-0.372 0.147-0.6389 0.147-0.267 0.444-0.438h-0.5099v-0.5519z" opacity=".3"/>
   <path d="m78.58 129.2v-0.5519h3.36v0.5519zm-1.308 0v-0.5519h0.6989v0.5519z" opacity=".3"/>
   <path d="m79.92 124.7h2.028v0.5519h-2.01q-0.4769 0-0.7139 0.186-0.237 0.186-0.237 0.5579 0 0.447 0.285 0.7049 0.285 0.258 0.7769 0.258h1.899v0.5549h-3.36v-0.5549h0.5219q-0.303-0.198-0.453-0.465-0.15-0.27-0.15-0.6209 0-0.5789 0.36-0.8759 0.357-0.297 1.053-0.297z" opacity=".3"/>
   <path d="m80.13 120.8h0.27v2.538q0.5699-0.036 0.8699-0.342 0.297-0.309 0.297-0.8579 0-0.318-0.07799-0.6149-0.07799-0.3-0.234-0.5939h0.5219q0.126 0.297 0.192 0.6089 0.06599 0.312 0.06599 0.6329 0 0.8039-0.4679 1.275-0.4679 0.468-1.266 0.468-0.8249 0-1.308-0.444-0.4859-0.447-0.4859-1.203 0-0.6779 0.438-1.071 0.435-0.396 1.185-0.396zm-0.162 0.5519q-0.453 6e-3 -0.7229 0.255-0.27 0.246-0.27 0.6539 0 0.462 0.261 0.7409 0.261 0.276 0.7349 0.318z" opacity=".3"/>
   <path d="m114.3 252.1-0.8219 2.229h1.647zm-0.342-0.5969h0.6869l1.707 4.479h-0.6299l-0.408-1.149h-2.019l-0.408 1.149h-0.6389z" opacity=".3"/>
   <path d="m121.2 253.1v-1.818h0.5519v4.667h-0.5519v-0.504q-0.174 0.3-0.441 0.447-0.264 0.144-0.6359 0.144-0.6089 0-0.9929-0.486-0.381-0.486-0.381-1.278t0.381-1.278q0.384-0.486 0.9929-0.486 0.372 0 0.6359 0.147 0.267 0.144 0.441 0.444zm-1.881 1.173q0 0.6089 0.249 0.9569 0.252 0.345 0.6899 0.345t0.6899-0.345q0.252-0.348 0.252-0.9569t-0.252-0.9539q-0.252-0.348-0.6899-0.348t-0.6899 0.348q-0.249 0.345-0.249 0.9539z" opacity=".3"/>
   <path d="m125.7 254.1v0.27h-2.538q0.036 0.5699 0.342 0.8699 0.309 0.297 0.8579 0.297 0.318 0 0.6149-0.078 0.3-0.078 0.5939-0.234v0.522q-0.297 0.126-0.6089 0.192-0.312 0.066-0.6329 0.066-0.8039 0-1.275-0.468-0.468-0.468-0.468-1.266 0-0.8249 0.444-1.308 0.447-0.486 1.203-0.486 0.6779 0 1.071 0.438 0.396 0.435 0.396 1.185zm-0.5519-0.162q-6e-3 -0.453-0.255-0.7229-0.246-0.27-0.6539-0.27-0.462 0-0.7409 0.261-0.276 0.261-0.318 0.7349z" opacity=".3"/>
   <path d="m129.4 253.9v2.028h-0.5519v-2.01q0-0.477-0.186-0.7139-0.186-0.237-0.5579-0.237-0.447 0-0.7049 0.285-0.258 0.285-0.258 0.7769v1.899h-0.5549v-4.667h0.5549v1.83q0.198-0.303 0.465-0.453 0.27-0.15 0.6209-0.15 0.5789 0 0.8759 0.36 0.297 0.357 0.297 1.053z" opacity=".3"/>
   <path d="m131.9 256.3q-0.234 0.5999-0.456 0.7829-0.222 0.183-0.5939 0.183h-0.441v-0.462h0.324q0.228 0 0.354-0.108 0.126-0.108 0.279-0.5099l0.099-0.252-1.359-3.306h0.5849l1.05 2.628 1.05-2.628h0.5849z" opacity=".3"/>
   <path d="m136.4 253.1v-1.818h0.5519v4.667h-0.5519v-0.504q-0.174 0.3-0.441 0.447-0.264 0.144-0.6359 0.144-0.6089 0-0.9929-0.486-0.381-0.486-0.381-1.278t0.381-1.278q0.384-0.486 0.9929-0.486 0.372 0 0.6359 0.147 0.267 0.144 0.441 0.444zm-1.881 1.173q0 0.6089 0.249 0.9569 0.252 0.345 0.6899 0.345t0.6899-0.345q0.252-0.348 0.252-0.9569t-0.252-0.9539q-0.252-0.348-0.6899-0.348t-0.6899 0.348q-0.249 0.345-0.249 0.9539z" opacity=".3"/>
   <path d="m140 253.1q-0.093-0.054-0.204-0.078-0.108-0.027-0.24-0.027-0.468 0-0.7199 0.306-0.249 0.303-0.249 0.8729v1.77h-0.5549v-3.36h0.5549v0.522q0.174-0.306 0.453-0.453 0.279-0.15 0.6779-0.15 0.057 0 0.126 9e-3 0.069 6e-3 0.153 0.021z" opacity=".3"/>
   <path d="m142.1 254.3q-0.6689 0-0.9269 0.153-0.258 0.153-0.258 0.522 0 0.294 0.192 0.468 0.195 0.171 0.5279 0.171 0.459 0 0.7349-0.324 0.279-0.327 0.279-0.8669v-0.123zm1.101-0.228v1.917h-0.5519v-0.51q-0.189 0.306-0.471 0.453-0.282 0.144-0.6899 0.144-0.5159 0-0.8219-0.288-0.303-0.291-0.303-0.7769 0-0.5669 0.378-0.8549 0.381-0.288 1.134-0.288h0.7739v-0.054q0-0.381-0.252-0.5879-0.249-0.21-0.7019-0.21-0.288 0-0.5609 0.069t-0.525 0.207v-0.5099q0.303-0.117 0.5879-0.174 0.285-0.06 0.5549-0.06 0.7289 0 1.089 0.378t0.36 1.146z" opacity=".3"/>
   <path d="m144.9 251.6v0.9539h1.137v0.429h-1.137v1.824q0 0.411 0.111 0.5279 0.114 0.117 0.459 0.117h0.5669v0.462h-0.5669q-0.6389 0-0.8819-0.237-0.243-0.24-0.243-0.8699v-1.824h-0.405v-0.429h0.405v-0.9539z" opacity=".3"/>
   <path d="m149.6 254.1v0.27h-2.538q0.036 0.5699 0.342 0.8699 0.309 0.297 0.8579 0.297 0.318 0 0.6149-0.078 0.3-0.078 0.5939-0.234v0.522q-0.297 0.126-0.6089 0.192-0.312 0.066-0.6329 0.066-0.8039 0-1.275-0.468-0.468-0.468-0.468-1.266 0-0.8249 0.444-1.308 0.447-0.486 1.203-0.486 0.6779 0 1.071 0.438 0.396 0.435 0.396 1.185zm-0.5519-0.162q-6e-3 -0.453-0.255-0.7229-0.246-0.27-0.6539-0.27-0.462 0-0.7409 0.261-0.276 0.261-0.318 0.7349z" opacity=".3"/>
   <path d="m152.8 253.1v-1.818h0.5519v4.667h-0.5519v-0.504q-0.174 0.3-0.441 0.447-0.264 0.144-0.6359 0.144-0.6089 0-0.9929-0.486-0.381-0.486-0.381-1.278t0.381-1.278q0.384-0.486 0.9929-0.486 0.372 0 0.6359 0.147 0.267 0.144 0.441 0.444zm-1.881 1.173q0 0.6089 0.249 0.9569 0.252 0.345 0.6899 0.345t0.6899-0.345q0.252-0.348 0.252-0.9569t-0.252-0.9539q-0.252-0.348-0.6899-0.348t-0.6899 0.348q-0.249 0.345-0.249 0.9539z" opacity=".3"/>
   <path d="m157.9 254.3q-0.6689 0-0.9269 0.153-0.258 0.153-0.258 0.522 0 0.294 0.192 0.468 0.195 0.171 0.5279 0.171 0.459 0 0.7349-0.324 0.279-0.327 0.279-0.8669v-0.123zm1.101-0.228v1.917h-0.5519v-0.51q-0.189 0.306-0.471 0.453-0.282 0.144-0.6899 0.144-0.516 0-0.8219-0.288-0.303-0.291-0.303-0.7769 0-0.5669 0.378-0.8549 0.381-0.288 1.134-0.288h0.7739v-0.054q0-0.381-0.252-0.5879-0.249-0.21-0.7019-0.21-0.288 0-0.5609 0.069t-0.5249 0.207v-0.5099q0.303-0.117 0.5879-0.174 0.285-0.06 0.5549-0.06 0.7289 0 1.089 0.378t0.36 1.146z" opacity=".3"/>
   <path d="m160.1 254.6v-2.034h0.5519v2.013q0 0.477 0.186 0.7169 0.186 0.237 0.5579 0.237 0.447 0 0.7049-0.285 0.261-0.285 0.261-0.7769v-1.905h0.5519v3.36h-0.5519v-0.516q-0.201 0.306-0.468 0.456-0.264 0.147-0.6149 0.147-0.5789 0-0.8789-0.36t-0.3-1.053z" opacity=".3"/>
   <path d="m164.6 251.6v0.9539h1.137v0.429h-1.137v1.824q0 0.411 0.111 0.5279 0.114 0.117 0.459 0.117h0.5669v0.462h-0.5669q-0.6389 0-0.8819-0.237-0.243-0.24-0.243-0.8699v-1.824h-0.405v-0.429h0.405v-0.9539z" opacity=".3"/>
   <path d="m167.8 253q-0.444 0-0.7019 0.348-0.258 0.345-0.258 0.9479t0.255 0.9509q0.258 0.345 0.7049 0.345 0.441 0 0.6989-0.348 0.258-0.348 0.258-0.9479 0-0.5969-0.258-0.9449-0.258-0.351-0.6989-0.351zm0-0.468q0.7199 0 1.131 0.468 0.411 0.468 0.411 1.296 0 0.8249-0.411 1.296-0.411 0.468-1.131 0.468-0.7229 0-1.134-0.468-0.408-0.471-0.408-1.296 0-0.8279 0.408-1.296 0.411-0.468 1.134-0.468z" opacity=".3"/>
   <path d="m172.8 253.2q0.207-0.372 0.495-0.5489t0.6779-0.177q0.5249 0 0.8099 0.369 0.285 0.366 0.285 1.044v2.028h-0.5549v-2.01q0-0.483-0.171-0.7169-0.171-0.234-0.5219-0.234-0.429 0-0.6779 0.285-0.249 0.285-0.249 0.7769v1.899h-0.5549v-2.01q0-0.486-0.171-0.7169-0.171-0.234-0.5279-0.234-0.423 0-0.6719 0.288-0.249 0.285-0.249 0.7739v1.899h-0.5549v-3.36h0.5549v0.522q0.189-0.309 0.453-0.456 0.264-0.147 0.6269-0.147 0.366 0 0.6209 0.186 0.258 0.186 0.381 0.5399z" opacity=".3"/>
   <path d="m177.7 254.3q-0.6689 0-0.9269 0.153-0.258 0.153-0.258 0.522 0 0.294 0.192 0.468 0.195 0.171 0.5279 0.171 0.459 0 0.7349-0.324 0.279-0.327 0.279-0.8669v-0.123zm1.101-0.228v1.917h-0.5519v-0.51q-0.189 0.306-0.471 0.453-0.282 0.144-0.6899 0.144-0.516 0-0.8219-0.288-0.303-0.291-0.303-0.7769 0-0.5669 0.378-0.8549 0.381-0.288 1.134-0.288h0.7739v-0.054q0-0.381-0.252-0.5879-0.249-0.21-0.7019-0.21-0.288 0-0.5609 0.069t-0.525 0.207v-0.5099q0.303-0.117 0.5879-0.174 0.285-0.06 0.5549-0.06 0.7289 0 1.089 0.378t0.36 1.146z" opacity=".3"/>
   <path d="m180.5 251.6v0.9539h1.137v0.429h-1.137v1.824q0 0.411 0.111 0.5279 0.114 0.117 0.459 0.117h0.5669v0.462h-0.5669q-0.6389 0-0.8819-0.237-0.243-0.24-0.243-0.8699v-1.824h-0.405v-0.429h0.405v-0.9539z" opacity=".3"/>
   <path d="m182.4 252.6h0.5519v3.36h-0.5519zm0-1.308h0.5519v0.6989h-0.5519z" opacity=".3"/>
   <path d="m185.4 253q-0.444 0-0.7019 0.348-0.258 0.345-0.258 0.9479t0.255 0.9509q0.258 0.345 0.7049 0.345 0.441 0 0.6989-0.348 0.258-0.348 0.258-0.9479 0-0.5969-0.258-0.9449-0.258-0.351-0.6989-0.351zm0-0.468q0.7199 0 1.131 0.468 0.411 0.468 0.411 1.296 0 0.8249-0.411 1.296-0.411 0.468-1.131 0.468-0.7229 0-1.134-0.468-0.408-0.471-0.408-1.296 0-0.8279 0.408-1.296 0.411-0.468 1.134-0.468z" opacity=".3"/>
   <path d="m190.6 253.9v2.028h-0.5519v-2.01q0-0.477-0.186-0.7139-0.186-0.237-0.5579-0.237-0.447 0-0.7049 0.285t-0.258 0.7769v1.899h-0.5549v-3.36h0.5549v0.522q0.198-0.303 0.465-0.453 0.27-0.15 0.6209-0.15 0.5789 0 0.8759 0.36 0.297 0.357 0.297 1.053z" opacity=".3"/>
   <path d="m196.6 254.1v0.27h-2.538q0.036 0.5699 0.342 0.8699 0.309 0.297 0.8579 0.297 0.318 0 0.6149-0.078 0.3-0.078 0.5939-0.234v0.522q-0.297 0.126-0.6089 0.192-0.312 0.066-0.6329 0.066-0.8039 0-1.275-0.468-0.468-0.468-0.468-1.266 0-0.8249 0.444-1.308 0.447-0.486 1.203-0.486 0.6779 0 1.071 0.438 0.396 0.435 0.396 1.185zm-0.5519-0.162q-6e-3 -0.453-0.255-0.7229-0.246-0.27-0.6539-0.27-0.462 0-0.7409 0.261-0.276 0.261-0.318 0.7349z" opacity=".3"/>
   <path d="m200.3 253.9v2.028h-0.5519v-2.01q0-0.477-0.186-0.7139-0.186-0.237-0.5579-0.237-0.447 0-0.7049 0.285t-0.258 0.7769v1.899h-0.5549v-3.36h0.5549v0.522q0.198-0.303 0.465-0.453 0.27-0.15 0.6209-0.15 0.5789 0 0.8759 0.36 0.297 0.357 0.297 1.053z" opacity=".3"/>
   <path d="m203.6 254.2q0-0.5999-0.249-0.9299-0.246-0.33-0.6929-0.33-0.444 0-0.6929 0.33-0.246 0.33-0.246 0.9299 0 0.5969 0.246 0.9269 0.249 0.33 0.6929 0.33 0.447 0 0.6929-0.33 0.249-0.33 0.249-0.9269zm0.5519 1.302q0 0.8579-0.381 1.275-0.381 0.42-1.167 0.42-0.291 0-0.5489-0.045-0.258-0.042-0.501-0.132v-0.5369q0.243 0.132 0.48 0.195 0.237 0.063 0.483 0.063 0.5429 0 0.8129-0.285 0.27-0.282 0.27-0.8549v-0.273q-0.171 0.297-0.438 0.444-0.267 0.147-0.6389 0.147-0.6179 0-0.9959-0.471-0.378-0.471-0.378-1.248 0-0.7799 0.378-1.251 0.378-0.471 0.9959-0.471 0.372 0 0.6389 0.147 0.267 0.147 0.438 0.444v-0.51h0.5519z" opacity=".3"/>
   <path d="m205.3 252.6h0.5519v3.36h-0.5519zm0-1.308h0.5519v0.6989h-0.5519z" opacity=".3"/>
   <path d="m209.8 253.9v2.028h-0.5519v-2.01q0-0.477-0.186-0.7139-0.186-0.237-0.5579-0.237-0.447 0-0.7049 0.285-0.258 0.285-0.258 0.7769v1.899h-0.5549v-3.36h0.5549v0.522q0.198-0.303 0.465-0.453 0.27-0.15 0.6209-0.15 0.5789 0 0.8759 0.36 0.297 0.357 0.297 1.053z" opacity=".3"/>
   <path d="m213.7 254.1v0.27h-2.538q0.036 0.5699 0.342 0.8699 0.309 0.297 0.8579 0.297 0.318 0 0.6149-0.078 0.3-0.078 0.5939-0.234v0.522q-0.297 0.126-0.6089 0.192-0.312 0.066-0.6329 0.066-0.8039 0-1.275-0.468-0.4679-0.468-0.4679-1.266 0-0.8249 0.444-1.308 0.447-0.486 1.203-0.486 0.6779 0 1.071 0.438 0.396 0.435 0.396 1.185zm-0.5519-0.162q-6e-3 -0.453-0.255-0.7229-0.246-0.27-0.6539-0.27-0.4619 0-0.7409 0.261-0.276 0.261-0.318 0.7349z" opacity=".3"/>
  </g>
 </g>
</svg>
